<svg width="40" height="41" viewBox="0 0 40 41" fill="none" xmlns="http://www.w3.org/2000/svg">
<g id="fluent:paint-brush-24-filled">
<path id="Vector" d="M9.12207 23.813V21.6478H30.8776V23.813C30.8776 24.2063 30.8003 24.5958 30.65 24.9591C30.4998 25.3224 30.2796 25.6524 30.0022 25.9304C29.7247 26.2083 29.3953 26.4287 29.033 26.5791C28.6706 26.7294 28.2823 26.8068 27.8901 26.8068H23.3221H22.5721V27.5568V33.3772C22.5721 34.0613 22.3008 34.7171 21.8182 35.2004C21.3358 35.6837 20.6816 35.955 19.9998 35.955C19.3181 35.955 18.6639 35.6837 18.1815 35.2004C17.6989 34.7171 17.4276 34.0613 17.4276 33.3772V27.5568V26.8068H16.6776H12.1096C11.3176 26.8068 10.5579 26.4917 9.99754 25.9304C9.43713 25.369 9.12207 24.6074 9.12207 23.813ZM20.0804 4.17664V8.8377C20.0804 9.36718 20.2904 9.87523 20.6645 10.25C21.0387 10.6248 21.5465 10.8356 22.0762 10.8356C22.606 10.8356 23.1138 10.6248 23.488 10.25C23.8621 9.87523 24.0721 9.36718 24.0721 8.8377V4.17664H24.2332V10.5C24.2332 11.0294 24.4431 11.5375 24.8173 11.9123C25.1915 12.2871 25.6993 12.4979 26.229 12.4979C26.7588 12.4979 27.2665 12.2871 27.6407 11.9123C28.0149 11.5375 28.2248 11.0294 28.2248 10.5V4.17664H30.3818C30.5129 4.17664 30.6389 4.22879 30.732 4.32203C30.8251 4.41531 30.8776 4.5421 30.8776 4.67458V17.6519H9.12207V4.67458C9.12207 4.5421 9.17462 4.41532 9.26774 4.32203C9.36083 4.22879 9.48681 4.17664 9.6179 4.17664H20.0804Z" fill="#FBD3FF" stroke="#7E2F85" stroke-width="1.5"/>
</g>
</svg>
