<svg width="40" height="41" viewBox="0 0 40 41" fill="none" xmlns="http://www.w3.org/2000/svg">
<g id="Frame" clip-path="url(#clip0_1_1472)">
<g id="Group">
<g id="Group_2">
<path id="Vector" d="M39.8001 20.9337C39.8001 31.626 31.068 40.2967 20.3001 40.2967C9.53207 40.2967 0.800049 31.626 0.800049 20.9337C0.800049 10.2364 9.53207 1.56567 20.3001 1.56567C31.068 1.56567 39.8001 10.2364 39.8001 20.9337Z" fill="#55852F"/>
<path id="Vector_2" d="M20.3001 35.5345C28.421 35.5345 35.0043 28.9975 35.0043 20.9337C35.0043 12.8698 28.421 6.33276 20.3001 6.33276C12.1792 6.33276 5.59595 12.8698 5.59595 20.9337C5.59595 28.9975 12.1792 35.5345 20.3001 35.5345Z" fill="#B5FF7C"/>
<path id="Vector_3" d="M27.5494 28.13C31.5523 24.1552 31.5523 17.7108 27.5494 13.736C23.5465 9.76119 17.0565 9.76119 13.0536 13.736C9.05066 17.7108 9.05066 24.1552 13.0536 28.13C17.0565 32.1048 23.5465 32.1048 27.5494 28.13Z" fill="#5AB314"/>
<path id="Vector_4" d="M20.3705 26.5534C23.4964 26.5146 25.9988 23.9669 25.9597 20.8629C25.9206 17.759 23.3549 15.2742 20.229 15.313C17.1031 15.3518 14.6008 17.8995 14.6398 21.0035C14.6789 24.1074 17.2446 26.5922 20.3705 26.5534Z" fill="#D8EDFC"/>
</g>
<g id="Group_3">
<g id="Group_4">
<path id="Vector_5" d="M20.3 20.9337L36.8793 1.56567" stroke="#293D6B" stroke-width="2" stroke-miterlimit="10"/>
<path id="Vector_6" d="M20.3 18.7573V20.9337L22.331 20.5693" stroke="#293D6B" stroke-width="2" stroke-miterlimit="10"/>
</g>
<path id="Vector_7" d="M32.1238 6.65229L36.6381 1.37101L33.8229 0.362671L29.0522 5.87856L32.1238 6.65229Z" fill="#5B509D"/>
<path id="Vector_8" d="M32.5862 7.03668L37.1105 1.76538L38.5634 4.3611L33.848 9.92191L32.5862 7.03668Z" fill="#5B509D"/>
</g>
</g>
</g>
<defs>
<clipPath id="clip0_1_1472">
<rect width="39" height="39.9341" fill="white" transform="translate(0.800049 0.362671)"/>
</clipPath>
</defs>
</svg>
