<svg width="33" height="47" viewBox="0 0 33 47" fill="none" xmlns="http://www.w3.org/2000/svg">
<g id="Frame" clip-path="url(#clip0_1_1489)">
<g id="Group">
<g id="Group_2">
<path id="Vector" d="M11.2593 26.2658C11.2593 28.1923 11.2593 27.7296 11.2593 29.387H21.7778C21.7778 27.7283 21.7778 28.1923 21.7778 26.2658C25.1941 24.3764 27.5122 20.7039 27.5122 16.4829C27.5122 10.3314 22.5901 5.34644 16.5179 5.34644C10.4457 5.34644 5.52368 10.3327 5.52368 16.4829C5.52495 20.7039 7.84299 24.3764 11.2593 26.2658Z" fill="#F8BC17" stroke="#132E47" stroke-width="2" stroke-miterlimit="10" stroke-linecap="round" stroke-linejoin="round"/>
<path id="Vector_2" d="M18.9588 29.387L21.5058 19.2875C19.3966 19.8144 18.9929 16.3599 20.3215 16.5445C21.6488 16.729 20.1127 19.2222 18.0035 19.5644C15.8942 19.9067 14.4619 15.3306 16.5053 15.3306C18.9006 15.3306 16.5408 19.3401 14.0582 19.3401C12.1059 19.3401 11.7149 16.6278 12.4564 16.465C13.5369 16.2278 13.2117 18.6146 11.6099 19.2081L14.1354 29.3857" stroke="#132E47" stroke-width="1.5" stroke-miterlimit="10" stroke-linecap="round" stroke-linejoin="round"/>
<path id="Vector_3" d="M7.54065 13.3181C7.54065 13.3181 9.32347 7.50503 14.6934 6.52956C16.6293 6.17834 16.9153 9.37905 13.6862 9.73027C10.4572 10.0828 8.5124 11.9106 7.54065 13.3181Z" fill="white"/>
<g id="Group_3">
<g id="Group_4">
<g id="Group_5">
<path id="Vector_4" d="M16.566 0.615234V3.26604" stroke="#132E47" stroke-width="2" stroke-miterlimit="10" stroke-linecap="round" stroke-linejoin="round"/>
</g>
<g id="Group_6">
<path id="Vector_5" d="M32.2205 16.4727H29.6025" stroke="#132E47" stroke-width="2" stroke-miterlimit="10" stroke-linecap="round" stroke-linejoin="round"/>
<path id="Vector_6" d="M3.52962 16.4727H0.912964" stroke="#132E47" stroke-width="2" stroke-miterlimit="10" stroke-linecap="round" stroke-linejoin="round"/>
</g>
<g id="Group_7">
<path id="Vector_7" d="M27.635 5.2605L25.7838 7.13452" stroke="#132E47" stroke-width="2" stroke-miterlimit="10" stroke-linecap="round" stroke-linejoin="round"/>
<path id="Vector_8" d="M7.34834 25.8119L5.49719 27.6859" stroke="#132E47" stroke-width="2" stroke-miterlimit="10" stroke-linecap="round" stroke-linejoin="round"/>
</g>
<g id="Group_8">
<path id="Vector_9" d="M27.635 27.6859L25.7838 25.8119" stroke="#132E47" stroke-width="2" stroke-miterlimit="10" stroke-linecap="round" stroke-linejoin="round"/>
<path id="Vector_10" d="M7.34834 7.13452L5.49719 5.2605" stroke="#132E47" stroke-width="2" stroke-miterlimit="10" stroke-linecap="round" stroke-linejoin="round"/>
</g>
</g>
<g id="Group_9">
<g id="Group_10">
<path id="Vector_11" d="M21.9614 1.58691L21.0592 4.07621" stroke="#132E47" stroke-width="2" stroke-miterlimit="10" stroke-linecap="round" stroke-linejoin="round"/>
</g>
<g id="Group_11">
<path id="Vector_12" d="M31.26 21.9384L28.8041 21.0258" stroke="#132E47" stroke-width="2" stroke-miterlimit="10" stroke-linecap="round" stroke-linejoin="round"/>
<path id="Vector_13" d="M4.3293 11.9223L1.87207 11.0071" stroke="#132E47" stroke-width="2" stroke-miterlimit="10" stroke-linecap="round" stroke-linejoin="round"/>
</g>
<g id="Group_12">
<path id="Vector_14" d="M30.7717 9.81238L28.3967 10.925" stroke="#132E47" stroke-width="2" stroke-miterlimit="10" stroke-linecap="round" stroke-linejoin="round"/>
<path id="Vector_15" d="M4.73545 22.0217L2.36047 23.1343" stroke="#132E47" stroke-width="2" stroke-miterlimit="10" stroke-linecap="round" stroke-linejoin="round"/>
</g>
<g id="Group_13">
<path id="Vector_16" d="M11.0899 4.48764L9.99158 2.08167" stroke="#132E47" stroke-width="2" stroke-miterlimit="10" stroke-linecap="round" stroke-linejoin="round"/>
</g>
</g>
</g>
</g>
<g id="Group_14">
<path id="Vector_17" d="M21.8006 29.3972H11.3328V34.5899H21.8006V29.3972Z" fill="#E4472E" stroke="#132E47" stroke-width="1.5" stroke-miterlimit="10" stroke-linecap="round" stroke-linejoin="round"/>
<path id="Vector_18" d="M21.8006 34.5898H11.3328L16.5661 45.8571L21.8006 34.5898Z" fill="white" stroke="#132E47" stroke-width="1.5" stroke-miterlimit="10" stroke-linecap="round" stroke-linejoin="round"/>
<path id="Vector_19" d="M14.0608 40.4619L16.5661 45.8571L19.0727 40.4619H14.0608Z" fill="#132E47" stroke="#132E47" stroke-width="1.5" stroke-miterlimit="10" stroke-linecap="round" stroke-linejoin="round"/>
<g id="Group_15">
<path id="Vector_20" d="M14.7466 29.455V34.5323" stroke="#132E47" stroke-width="1.5" stroke-miterlimit="10" stroke-linecap="round" stroke-linejoin="round"/>
<path id="Vector_21" d="M18.3868 29.455V34.5323" stroke="#132E47" stroke-width="1.5" stroke-miterlimit="10" stroke-linecap="round" stroke-linejoin="round"/>
</g>
</g>
</g>
</g>
<defs>
<clipPath id="clip0_1_1489">
<rect width="32.0667" height="46.011" fill="white" transform="translate(0.533325 0.230713)"/>
</clipPath>
</defs>
</svg>
